<svg xmlns="http://www.w3.org/2000/svg" xmlns:xlink="http://www.w3.org/1999/xlink" version="1.1" width="997.76pt" height="1203.9533pt" viewBox="0 0 997.76 1203.9533">
<g id="layer_1" data-name="Layer 1">
<path transform="matrix(1,0,0,-1,1,1202.9533)" d="M194.7081 522.197C262.8108 718.7264 809.85 778.9952 712.7541 1053.828 776.6858 1041.2005 924.7394 845.0076 695.1685 695.0497 778.7503 727.5611 854.4776 782.3829 865.0879 868.801 929.5875 746.8027 866.2408 605.5917 660.0969 570.3571 723.1941 567.9454 794.7964 570.727 839.4154 598.8943 747.8427 430.5266 475.8157 508.845 322.8766 497.5523 252.0598 492.3235 211.013 424.3918 242.2585 375.8618 185.8042 418.0955 180.7294 481.8577 194.7081 522.197" fill="#b92025"/>
<path transform="matrix(1,0,0,-1,1,1202.9533)" d="M645.0803 446.5749C566.2151 423.2211 309.6156 517.8787 265.1732 434.7057 365.7022 489.4937 540.8286 326.4092 645.0803 446.5749" fill="#3c00bd"/>
<path transform="matrix(1,0,0,-1,1,1202.9533)" d="M242.405 790.575C242.405 790.575 211.8866 800.3228 183.706 800.0827 214.6986 787.8835 259.8707 721.4193 259.6056 645.798 263.1838 648.4859 266.8564 651.1776 270.6423 653.8759 311.936 683.3058 361.9346 710.5847 411.5897 736.9226 364.9844 824.2492 306.3263 863.78 306.3263 863.78 362.1671 832.335 405.9556 792.8717 439.5866 751.7324 461.2808 763.2065 483.08 774.8087 504.3025 786.666 477.8836 819.5686 454.5156 840.7945 445.8889 846.5165 465.3689 845.9439 504.6293 852.0823 504.6293 852.0823 387.006 930.3979 199.4244 951.5041 208.3881 882.4504 140.1474 898.3145 112.9983 860.9258 126.1636 808.0302 133.8945 824.4675 178.8486 835.1872 242.405 790.575ZM265.8557 883.9953V883.9953L271.4275 897.6716 274.9297 883.3252 289.6129 882.2412 277.0946 874.4587 280.5973 860.112 269.3585 869.6489 256.8407 861.8664 262.4128 875.5427 251.1731 885.0796Z" fill="#3c00bd"/>
<path transform="matrix(1,0,0,-1,1,1202.9533)" d="M497.88 1201.9533C772.852 1201.9533 995.76 979.0452 995.76 704.0733 995.76 429.1013 772.852 206.1933 497.88 206.1933 222.908 206.1933 0 429.1013 0 704.0733 0 979.0452 222.908 1201.9533 497.88 1201.9533ZM497.88 1097.204C565.1651 1097.204 628.494 1080.2869 683.8682 1050.4945L669.4617 1091.2731 718.2468 1081.6373C746.0223 1076.1511 772.8741 1052.8847 790.789 1031.9703 815.0567 1003.6395 833.0774 968.7574 841.6191 932.4249 842.2506 929.7377 842.8292 927.0635 843.3553 924.4026L847.9539 961.8574 890.1476 882.0499C912.4413 839.8826 922.6755 792.3234 915.1532 744.8913 911.1504 719.6511 902.446 696.2587 889.9424 675.0547 889.6649 671.2534 889.3449 667.4641 888.9602 663.6934L916.3205 680.9655 881.1731 616.3427C841.3104 441.4567 684.8413 310.9425 497.88 310.9425 413.6743 310.9425 335.6617 337.4303 271.692 382.5094L351.2713 258.908C233.9966 326.3162 144.9723 381.4004 160.8474 501.6025 125.2395 560.7394 104.7492 630.0119 104.7492 704.0733 104.7492 723.2227 106.1459 742.0436 108.7917 760.4612 102.4325 786.0115 98.2947 802.2413 94.7373 827.6723 93.8608 848.4854 98.5275 869.2554 112.1391 885.9787 126.0488 903.0679 144.9808 911.1736 165.2031 913.595 234.8203 1023.9151 357.7867 1097.204 497.88 1097.204" fill="#3c00bd" fill-rule="evenodd"/>
<path transform="matrix(1,0,0,-1,1,1202.9533)" d="M228.7791 1074.0717 212.9315 1060.4799 208.1923 1066.0059C205.2011 1069.4937 203.1908 1071.5523 202.1482 1072.171 201.0946 1072.8029 200.0154 1072.6339 198.9128 1071.6884 197.964 1070.8744 197.6289 1069.9418 197.9317 1068.8886 198.2234 1067.8479 199.7169 1065.7687 202.3778 1062.6661L227.4055 1033.4843C229.737 1030.7662 231.4542 1029.1015 232.537 1028.5393 233.6199 1027.9772 234.6732 1028.1243 235.6991 1029.0039 236.8273 1029.9716 237.166 1031.1076 236.7405 1032.4341 236.3023 1033.7488 234.8691 1035.8355 232.4387 1038.669L226.2589 1045.8746 223.1816 1043.2355 215.2644 1052.4668 233.7273 1068.3018 261.7021 1035.6837 251.7398 1027.1398 246.5393 1030.2454C247.0791 1027.4369 246.9294 1024.861 246.1144 1022.5157 245.2873 1020.1595 243.7583 1018.0244 241.5399 1016.1221 238.8858 1013.8459 235.8615 1012.3648 232.4302 1011.6692 229.0116 1010.9846 225.8915 1011.0682 223.0608 1011.956 220.2282 1012.8197 217.7691 1014.1824 215.6689 1016.0082 213.5818 1017.845 210.7338 1020.8546 207.1491 1025.0346L191.6439 1043.1128C186.6628 1048.9209 183.3525 1053.4028 181.7266 1056.57 180.0896 1059.7501 179.8172 1063.7 180.8989 1068.4329 181.98 1073.1654 184.879 1077.5432 189.5842 1081.5789 194.2132 1085.5485 198.8606 1087.8875 203.5502 1088.5944 208.2402 1089.301 212.1758 1088.7599 215.3424 1086.9358 218.5197 1085.0993 222.2362 1081.7 226.5248 1076.6996ZM572.5689 1182.6533 571.1468 1172.4143 576.6678 1171.6475 575.2318 1161.3078 569.7105 1162.075 564.8797 1127.2918C564.2872 1123.0258 564.1889 1120.6006 564.5735 1120.053 564.9579 1119.505 566.7968 1118.9937 570.1093 1118.5336L568.6594 1108.0939 560.6456 1109.2068C556.1283 1109.8341 552.9249 1110.4668 551.0375 1111.1213 549.1647 1111.7564 547.5793 1112.8635 546.2949 1114.4231 545.0108 1115.9827 544.3044 1117.6498 544.1803 1119.4577 544.0706 1121.2461 544.4561 1125.3711 545.3529 1131.8287L549.9351 1164.8217 545.7189 1165.407 547.1552 1175.7465 551.3715 1175.161 552.7936 1185.3998ZM528.357 1178.964 526.9955 1170.3943C530.3798 1176.3715 534.8381 1179.3197 540.3739 1179.2725L538.6266 1156.2316C534.9719 1156.5088 532.2402 1156.2249 530.4467 1155.3613 528.6535 1154.4976 527.5057 1153.2127 526.9674 1151.475 526.447 1149.7525 525.937 1145.7088 525.4543 1139.3425L523.4927 1113.4718 503.5847 1114.9815 508.5502 1180.4661ZM467.3001 1153.4965 448.6048 1152.0785 448.2714 1156.4745C447.8871 1161.544 448.1804 1165.4963 449.1329 1168.3466 450.0867 1171.1803 452.2609 1173.7846 455.6214 1176.1566 458.9819 1178.5289 463.4657 1179.936 469.1081 1180.3637 475.8452 1180.8748 481.0224 1180.0647 484.6226 1177.9323 488.2221 1175.8167 490.4991 1173.0419 491.453 1169.6248 492.4063 1166.2072 493.3026 1159.0758 494.1241 1148.2461L496.6172 1115.3693 477.214 1113.8978 476.771 1119.742C475.7372 1117.292 474.287 1115.4207 472.4561 1114.0957 470.6252 1112.7713 468.3796 1112.0083 465.7014 1111.8053 462.2153 1111.5405 458.9408 1112.275 455.8793 1114.0078 452.8157 1115.7575 451.0431 1119.9257 450.5411 1126.5449L450.1321 1131.9347C449.7608 1136.8358 450.2823 1140.2294 451.6965 1142.1323 453.1107 1144.0349 456.7938 1146.398 462.7457 1149.221 469.1021 1152.2946 472.4751 1154.278 472.8793 1155.2063 473.2662 1156.1338 473.3654 1157.9536 473.1571 1160.6992 472.8977 1164.1184 472.4768 1166.3223 471.8752 1167.3272 471.2922 1168.3159 470.3939 1168.773 469.1976 1168.6825 467.8336 1168.579 467.0246 1168.077 466.7709 1167.1773 466.4993 1166.2924 466.5033 1164.0059 466.7803 1160.3511ZM474.3473 1145.0015C471.308 1142.4166 469.5866 1140.321 469.2013 1138.6996 468.7994 1137.0767 468.718 1134.8005 468.9425 1131.8363 469.2005 1128.4342 469.5846 1126.278 470.1144 1125.3189 470.6277 1124.358 471.5575 1123.9376 472.8881 1124.0385 474.1512 1124.1343 474.9301 1124.583 475.259 1125.3872 475.5875 1126.191 475.6195 1128.2261 475.3692 1131.5276ZM380.467 1165.0623 381.5762 1158.9043C382.5317 1161.6732 383.9043 1163.9143 385.717 1165.5984 387.5097 1167.2946 389.7558 1168.4546 392.4221 1169.0697 397.6228 1170.2702 402.2629 1168.7927 406.3791 1164.6289 407.45 1167.4244 408.8716 1169.6769 410.6514 1171.3533 412.4279 1173.0458 414.5587 1174.1788 417.0767 1174.7603 420.3686 1175.5199 423.303 1175.3478 425.8312 1174.2324 428.3722 1173.1375 430.2108 1171.4815 431.3591 1169.2852 432.5037 1167.1047 433.69 1163.3916 434.9018 1158.1414L445.4014 1112.65 426.5399 1108.2971 416.9103 1150.019C415.6492 1155.4835 414.6894 1158.8156 414.0108 1160.0283 413.3486 1161.2449 412.3412 1161.7058 410.9746 1161.3903 409.5924 1161.071 408.8517 1160.2244 408.7531 1158.8494 408.6377 1157.471 409.2228 1154.0347 410.4916 1148.5375L420.1211 1106.8156 401.2597 1102.4623 391.877 1143.1145C390.4296 1149.3853 389.412 1153.12 388.8105 1154.2986 388.2251 1155.481 387.2254 1155.909 385.8426 1155.5901 384.9704 1155.3886 384.3224 1154.8925 383.8487 1154.0897 383.3918 1153.2909 383.2486 1152.4085 383.4034 1151.4385 383.5539 1150.4854 383.9882 1148.4533 384.6986 1145.3757L394.9398 1101.0036 376.0781 1096.6504 361.309 1160.6406ZM347.7356 1144.8805 329.8187 1137.5535 327.5748 1143.0411C326.526 1145.6054 325.6203 1147.1511 324.8787 1147.669 324.138 1148.1871 323.2468 1148.2243 322.1836 1147.7897 321.0265 1147.3167 320.343 1146.4894 320.1389 1145.2929 319.9286 1144.1115 320.2132 1142.5674 320.9995 1140.6444 322.0095 1138.1743 323.1145 1136.4545 324.2982 1135.4786 325.4601 1134.5119 327.8937 1133.7372 331.609 1133.1763 342.2514 1131.5608 349.3653 1129.5612 352.9213 1127.2014 356.4935 1124.8478 359.7582 1120.0331 362.7247 1112.7787 364.8858 1107.4946 365.8524 1103.3456 365.6466 1100.3236 365.4346 1097.3169 363.9146 1094.2498 361.0565 1091.1104 358.2196 1087.961 354.4532 1085.4354 349.7471 1083.511 344.5877 1081.4009 339.7918 1080.5896 335.3343 1081.0474 330.8924 1081.5123 327.4994 1083.0263 325.1239 1085.5769 322.7579 1088.1497 320.4369 1092.2194 318.1674 1097.7693L316.1789 1102.6315 334.0956 1109.9585 337.7849 1100.9375C338.9227 1098.1546 339.9021 1096.4744 340.7281 1095.882 341.5547 1095.289 342.6055 1095.263 343.8876 1095.787 345.1697 1096.3112 345.9189 1097.2015 346.1287 1098.4734 346.3449 1099.7297 346.0436 1101.3585 345.238 1103.3286 343.4542 1107.6902 341.6899 1110.3086 339.9585 1111.1513 338.1735 1111.991 334.2512 1113.0148 328.1757 1114.2164 322.0934 1115.434 317.9894 1116.4564 315.8374 1117.2555 313.7014 1118.0606 311.5919 1119.5155 309.5399 1121.6327 307.4879 1123.7499 305.6485 1126.7753 304.0373 1130.7152 301.7166 1136.3903 300.7352 1140.8432 301.1151 1144.0645 301.4946 1147.2857 302.9868 1150.2863 305.6156 1153.095 308.2445 1155.9039 311.8371 1158.2308 316.4176 1160.1038 321.4208 1162.1497 326.0058 1163.0758 330.1977 1162.9103 334.3805 1162.7229 337.5411 1161.6432 339.6926 1159.6397 341.8379 1157.6517 344.1231 1153.7141 346.5337 1147.8197ZM282.6635 1100.2962 291.4379 1086.8009C294.6603 1081.8442 296.7625 1078.0532 297.777 1075.4087 298.7819 1072.7782 299.1195 1069.9353 298.798 1066.8657 298.4771 1063.7955 297.339 1060.9603 295.4018 1058.3306 293.4556 1055.7156 290.8372 1053.3283 287.5235 1051.1736 283.8132 1048.7614 280.4026 1047.128 277.3145 1046.2686 274.2032 1045.4146 271.4057 1045.3482 268.9214 1046.0701 266.4139 1046.7973 264.096 1048.1306 261.9677 1050.0715 259.8401 1052.0121 257.2591 1055.3309 254.2204 1060.0042L245.0412 1074.1226C241.7083 1079.2488 239.6642 1083.6017 238.89 1087.2085 238.1258 1090.8014 238.6216 1094.4077 240.3638 1098.0187 242.106 1101.6298 245.2173 1104.9015 249.692 1107.8107 253.4448 1110.2505 257.0417 1111.7837 260.4739 1112.4235 263.8919 1113.054 266.9219 1112.9491 269.564 1112.108 272.1917 1111.2579 274.4036 1110.0567 276.1846 1108.4948 277.9659 1106.9325 280.1222 1104.2048 282.6635 1100.2962ZM263.2272 1093.5624C261.3949 1096.3806 260.079 1098.0635 259.3123 1098.5924 258.522 1099.1262 257.6313 1099.0709 256.6256 1098.4174 255.6201 1097.7636 255.1941 1096.9625 255.333 1096.0053 255.477 1095.0712 256.4668 1093.1766 258.2991 1090.3584L274.4578 1065.5056C276.1517 1062.9 277.4268 1061.3109 278.2587 1060.744 279.1142 1060.1723 280.0236 1060.1991 281.0007 1060.8344 282.0061 1061.4882 282.4271 1062.2656 282.2831 1063.1996 282.1397 1064.1334 281.2918 1065.7783 279.7449 1068.1574Z" fill="#ffffff" fill-rule="evenodd"/>
<path transform="matrix(1,0,0,-1,1,1202.9533)" d="M484.6022 291.2287 479.6269 225.7642 464.7297 226.8964 468.0473 271.0942 458.771 227.3494 448.3429 228.1419 445.3778 271.8181 442.0531 228.6198 427.1559 229.752 432.1312 295.2164 454.1323 293.5443C454.4521 289.5384 454.7735 284.8249 455.0998 279.445L456.2507 262.6404 462.4498 292.9122ZM887.3666 582.2382 921.8225 555.3618 943.9495 546.6895 938.1951 532.0071 916.0682 540.6792 873.9224 544.6417 932.2968 514.8249 925.5008 501.5203 886.011 521.6445 922.7823 496.1982 918.0252 486.8847 876.5906 501.0126 915.1557 481.2673 908.3599 467.9623 849.8923 497.8267 859.9289 517.4762C863.7477 516.2247 868.2202 514.7014 873.3087 512.9252L889.2547 507.4988 863.7233 524.9047 873.8101 544.6522 872.6771 544.7588 878.3966 559.3516C891.2452 556.9157 899.7917 555.067 904.0394 553.7735 897.8805 557.2423 890.4195 561.8602 881.6522 567.6585ZM832.9192 471.5575 848.2442 495.5499 859.2962 488.4905 853.1751 478.9074 863.7375 472.1607 869.4564 481.1142 879.9483 474.4123 874.2294 465.459 886.4008 457.6847 893.1472 468.2469 904.199 461.1878 888.2484 436.216ZM807.1798 437.6701 815.0652 447.7124C820.1486 454.1862 823.8855 458.3401 826.278 460.1548 828.6704 461.9699 831.0166 462.9416 833.3079 463.0598 835.5991 463.1777 837.7007 462.7409 839.596 461.7275 841.5023 460.7053 844.8968 458.2865 849.7928 454.4419L867.8755 440.2429C872.5102 436.6035 875.4401 433.9511 876.6544 432.2942 877.8793 430.6289 878.5108 428.9017 878.546 427.1326 878.5729 425.3525 878.1316 423.536 877.2347 421.6547 876.3355 419.7929 874.6214 417.2516 872.1011 414.042L858.8163 397.1237ZM826.5523 444.1978 860.563 417.4914C862.058 419.3955 862.5892 420.878 862.1583 421.9197 861.7255 422.981 859.7854 424.8561 856.3368 427.5641L836.2522 443.3352C833.9131 445.172 832.3517 446.2747 831.577 446.6546 830.7935 447.0233 830.0585 447.0727 829.3354 446.7787 828.6097 446.5046 827.6885 445.6449 826.5523 444.1978ZM800.8756 430.4991 855.1672 392.3133 843.1415 379.677 833.9649 387.1307 829.7212 382.6715 837.6199 373.875 825.4417 361.0783 783.8529 412.6119ZM825.2328 394.8106C819.2789 399.35 812.0137 405.0802 803.418 412.0002 811.3932 402.0806 817.3329 394.9577 821.2368 390.6119ZM797.542 385.2544 784.6087 374.0709 777.153 382.693C774.9814 385.2045 773.4969 386.6457 772.6822 387.0386 771.8763 387.4204 770.9978 387.2095 770.0666 386.4042 769.0204 385.4996 768.6763 384.5441 769.045 383.546 769.4232 382.5377 770.6883 380.7788 772.8596 378.2676L792.7841 355.2262C794.874 352.8091 796.3778 351.366 797.3028 350.8673 798.2186 350.3795 799.1736 350.5652 800.1573 351.4156 801.1094 352.239 801.4207 353.1481 801.0711 354.1442 800.7307 355.1304 799.3752 356.9939 797.0136 359.725L791.6119 365.9717 804.5453 377.1553 806.2191 375.2195C810.671 370.0715 813.4622 366.103 814.5955 363.3335 815.737 360.5533 815.7543 357.2768 814.6769 353.5104 813.5892 349.7352 811.2305 346.2871 807.5889 343.1384 803.8117 339.872 800.1051 337.8557 796.4609 337.1003 792.8269 336.3537 789.5568 336.8361 786.6626 338.5763 783.7679 340.3162 780.2215 343.6138 776.014 348.4791L763.4733 362.982C760.379 366.5608 758.1881 369.3481 756.8816 371.3454 755.5853 373.352 754.8146 375.7028 754.609 378.4147 754.3933 381.1175 754.9469 383.8825 756.2792 386.6984 757.6112 389.5146 759.6842 392.1299 762.4885 394.5549 766.2869 397.8394 770.0593 399.8214 773.8152 400.4904 777.5512 401.1608 780.7567 400.7322 783.4414 399.2134 786.1158 397.6855 789.4528 394.6093 793.461 389.9738ZM741.0977 375.2073 787.0255 327.2868 772.793 317.2014 765.2222 326.2816 760.1998 322.7224 766.2577 312.5704 751.8444 302.3566 720.951 360.9309ZM758.1314 335.4987C753.1622 341.0989 747.1358 348.1203 740.0324 356.5653 745.9498 345.2958 750.4075 337.1632 753.4023 332.1473ZM693.9833 344.2527 724.1108 285.9202 710.8367 279.0643 689.2472 301.5128 702.9462 274.989 690.2617 268.4378 660.1343 326.7703 672.8185 333.3214 694.8646 311.4357 681.2991 337.7015ZM651.3814 323.5745 684.6786 266.1548 668.4653 259.7196 663.2558 270.3322 657.5343 268.0614 661.0204 256.7648 644.6013 250.2482 628.4307 314.4654ZM658.5449 280.9644C655.0407 287.5808 650.8449 295.8276 645.9392 305.7126 649.0247 293.3637 651.4333 284.4079 653.1574 278.8262ZM629.2519 284.6194 612.8104 279.9272 609.6824 290.8885C608.7711 294.0812 608.0326 296.0138 607.4592 296.7131 606.8891 297.3991 606.0036 297.578 604.8198 297.2404 603.4895 296.8605 602.7749 296.1391 602.689 295.0787 602.6068 294.0049 603.013 291.8767 603.9241 288.6843L612.2832 259.3925C613.1599 256.3197 613.9157 254.3774 614.5444 253.5355 615.1694 252.707 616.1136 252.4728 617.364 252.8297 618.5747 253.1752 619.24 253.8686 619.3426 254.9191 619.4494 255.9566 619.0055 258.2181 618.0148 261.69L615.7485 269.6312 632.19 274.3234 632.8925 271.8624C634.7602 265.3177 635.6194 260.5425 635.4799 257.5534 635.3439 254.5512 633.9787 251.5723 631.4142 248.6106 628.8369 245.6456 625.2449 243.5128 620.6156 242.1916 615.8134 240.8213 611.6026 240.5546 607.9793 241.4052 604.3691 242.2593 601.6071 244.0749 599.7155 246.8727 597.8237 249.6702 595.997 254.1552 594.2319 260.3407L588.9705 278.7778C587.6722 283.3271 586.8601 286.778 586.5168 289.1401 586.1869 291.5059 586.4786 293.9627 587.435 296.5085 588.3783 299.0506 590.0454 301.3248 592.4404 303.317 594.8351 305.3095 597.8169 306.8079 601.382 307.8252 606.2108 309.2031 610.4673 309.4109 614.1552 308.435 617.826 307.4686 620.5521 305.729 622.3467 303.2203 624.1283 300.7077 625.858 296.5119 627.5398 290.6189ZM579.9487 300.9155 591.3496 236.2598 574.5115 233.2908 563.1106 297.9465ZM518.7909 291.8438 530.7678 293.3912C538.7525 294.4227 544.197 294.819 547.1028 294.567 550.0089 294.3147 552.5175 293.0349 554.629 290.7272 556.7386 288.4331 558.1534 284.5012 558.8694 278.9583 559.5233 273.8962 559.3317 270.4122 558.2945 268.5067 557.2715 266.6032 554.923 265.2398 551.2629 264.418 554.7186 264.0138 557.1258 263.1949 558.4589 261.9442 559.7904 260.7075 560.6705 259.5101 561.0954 258.3794 561.5342 257.2506 562.0864 254.0577 562.765 248.8034L564.986 231.6129 549.2636 229.5819 546.465 251.2449C546.0148 254.7292 545.4621 256.8478 544.8053 257.614 544.1621 258.3816 542.6819 258.609 540.3634 258.3094L544.1601 228.9226 527.203 226.7317ZM537.1838 282.9217 539.0555 268.4341C540.9488 268.6788 542.2323 269.1096 542.9194 269.7284 543.6065 270.3472 543.7709 272.0979 543.4004 274.9654L542.9378 278.5462C542.6702 280.6177 542.1243 281.9282 541.3139 282.479 540.5034 283.0297 539.1181 283.1717 537.1838 282.9217ZM488.088 291.6901 516.5498 292.3478 516.8526 279.237 505.4845 278.9745 505.7739 266.4445 516.3951 266.69 516.6825 254.2436 506.0614 253.9981 506.3947 239.5599 518.9247 239.8493 519.2274 226.7388 489.6043 226.0545ZM423.055 297.6296 421.2723 231.2779 404.0935 234.307 405.2271 246.0747 399.1649 247.144 396.2055 235.698 378.8087 238.7656 398.738 301.9175ZM406.7957 257.5976C407.2842 265.0686 408.0396 274.2908 409.0501 285.2796 405.1973 273.1484 402.5486 264.2604 401.0873 258.6042Z" fill="#ffffff" fill-rule="evenodd"/>
<path transform="matrix(1,0,0,-1,1,1202.9533)" d="M307.0803 90.7705C308.7312 94.9609 309.5566 99.6806 309.5566 104.9295 309.5566 110.1784 308.7312 114.8981 307.0803 119.0889 305.4294 123.2793 303.1648 126.8563 300.2865 129.8194 297.4082 132.7825 293.9791 135.068 290.0004 136.6764 286.0211 138.2851 281.7037 139.0893 277.0475 139.0893 272.4761 139.0893 268.2006 138.2851 264.2219 136.6764 260.2426 135.068 256.8141 132.7825 253.9355 129.8194 251.0572 126.8563 248.7926 123.2793 247.1417 119.0889 245.4911 114.8981 244.6656 110.1784 244.6656 104.9295 244.6656 99.6806 245.4911 94.9609 247.1417 90.7705 248.7926 86.5797 251.0572 83.003 253.9355 80.0399 256.8141 77.0769 260.2426 74.791 264.2219 73.1826 268.2006 71.574 272.4761 70.7698 277.0475 70.7698 281.7037 70.7698 286.0211 71.574 290.0004 73.1826 293.9791 74.791 297.4082 77.0769 300.2865 80.0399 303.1648 83.003 305.4294 86.5797 307.0803 90.7705ZM332.1604 104.9295C332.1604 97.1408 330.806 89.9237 328.0966 83.2782 325.3878 76.6324 321.5781 70.8333 316.6679 65.8806 311.7574 60.9282 305.9583 57.0549 299.2706 54.2611 292.5825 51.4672 285.1747 50.0706 277.0475 50.0706 268.9203 50.0706 261.5125 51.4672 254.8244 54.2611 248.1364 57.0549 242.3373 60.9282 237.4271 65.8806 232.5169 70.8333 228.7071 76.6324 225.9984 83.2782 223.289 89.9237 221.9346 97.1408 221.9346 104.9295 221.9346 112.6335 223.289 119.8295 225.9984 126.5176 228.7071 133.2057 232.5169 139.0048 237.4271 143.915 242.3373 148.8251 248.1364 152.6984 254.8244 155.5345 261.5125 158.3705 268.9203 159.7884 277.0475 159.7884 285.1747 159.7884 292.5825 158.3705 299.2706 155.5345 305.9583 152.6984 311.7574 148.8251 316.6679 143.915 321.5781 139.0048 325.3878 133.2057 328.0966 126.5176 330.806 119.8295 332.1604 112.6335 332.1604 104.9295ZM165.0438 50.0706C156.6626 50.0706 149.0856 51.4463 142.3131 54.1979 135.54 56.9492 129.7621 60.8012 124.979 65.7539 120.1958 70.7063 116.513 76.5266 113.9309 83.2147 111.3489 89.9028 110.058 97.1408 110.058 104.9295 110.058 112.7183 111.3489 119.9565 113.9309 126.6446 116.513 133.3324 120.1958 139.1528 124.979 144.1054 129.7621 149.0579 135.54 152.9099 142.3131 155.6614 149.0856 158.4128 156.6626 159.7884 165.0438 159.7884 172.6631 159.7884 179.8381 158.963 186.5684 157.3123 193.2987 155.6614 199.3309 153.1851 204.6643 149.8833L196.41 130.7081C191.7536 133.5866 186.9494 135.703 181.9967 137.0574 177.0443 138.4121 171.6471 139.0893 165.8058 139.0893 161.3188 139.0893 157.0859 138.4121 153.1069 137.0574 149.1279 135.703 145.6359 133.6076 142.6303 130.7716 139.625 127.9355 137.2334 124.38 135.4555 120.1045 133.6776 115.8293 132.789 110.7709 132.789 104.9295 132.789 99.0882 133.6776 94.0297 135.4555 89.7545 137.2334 85.479 139.625 81.9026 142.6303 79.024 145.6359 76.1457 149.1279 74.029 153.1069 72.6744 157.0859 71.32 161.3188 70.6428 165.8058 70.6428 169.3616 70.6428 172.8958 71.0025 176.4094 71.7222 179.9226 72.4416 182.8644 73.3518 185.235 74.4525V90.326H162.25V110.8979H206.8231V60.2297C203.775 58.2826 200.5795 56.7164 197.2355 55.531 193.8915 54.3458 190.3992 53.3511 186.7589 52.547 183.1187 51.7425 179.4359 51.1288 175.7109 50.7056 171.9859 50.2824 168.4301 50.0706 165.0438 50.0706" fill="#3c00bd" fill-rule="evenodd"/>
<path transform="matrix(1,0,0,-1,1,1202.9533)" d="M386.5113 79.4049C389.3051 77.6271 391.845 76.2514 394.1306 75.278 396.4164 74.304 398.8718 73.4998 401.4961 72.8651 404.1204 72.2299 406.7872 71.7009 409.4963 71.2777 412.2054 70.8542 414.8719 70.6428 417.4965 70.6428 420.5443 70.6428 423.3169 70.8755 425.8142 71.3412 428.3118 71.8067 430.4494 72.5477 432.2273 73.5636 434.0049 74.5792 435.3809 75.8282 436.3543 77.3096 437.3277 78.791 437.8144 80.5476 437.8144 82.5795 437.8144 84.3574 437.4125 85.9025 436.6083 87.2147 435.8041 88.5268 434.6399 89.6698 433.116 90.6435 431.5921 91.6169 429.6662 92.4636 427.3381 93.1833 425.01 93.9027 422.4067 94.6434 419.5281 95.4054L411.0202 97.5643C401.2843 99.9346 393.9191 103.8923 388.9242 109.4377 383.9295 114.9829 381.4319 121.8192 381.4319 129.9461 381.4319 134.3486 382.3843 138.4121 384.2892 142.1371 386.1938 145.8621 388.8819 149.0369 392.3529 151.6612 395.8237 154.2858 399.9297 156.2964 404.6709 157.6933 409.4116 159.09 414.6605 159.7884 420.4174 159.7884 423.7189 159.7884 427.0842 159.5557 430.5129 159.09 433.9414 158.6245 437.2432 157.9473 440.418 157.0581 443.5926 156.1691 446.6404 155.1747 449.5612 154.074 452.482 152.9736 455.5083 151.4497 458.6409 149.5023L450.0057 130.3271C445.2644 133.3749 440.3333 135.5973 435.2114 136.9942 430.0897 138.3908 425.1158 139.0893 420.2904 139.0893 417.92 139.0893 415.7186 138.8778 413.6868 138.4546 411.6552 138.0314 409.8773 137.3961 408.3534 136.5497 406.8295 135.703 405.6656 134.7083 404.8611 133.5654 404.0569 132.4225 403.6547 131.089 403.6547 129.5651 403.6547 126.6868 404.7976 124.3587 407.0835 122.5809 409.3693 120.803 413.2636 119.2368 418.7665 117.8824L427.4016 115.7236C431.8038 114.5384 435.9946 113.078 439.9736 111.3423 443.9523 109.607 447.4658 107.4059 450.5136 104.739 453.5612 102.0722 455.974 98.8977 457.7516 95.2152 459.5298 91.5324 460.4187 87.2782 460.4187 82.4528 460.4187 77.2036 459.318 72.5477 457.1169 68.4839 454.9158 64.4204 451.9315 61.0339 448.1643 58.3248 444.3968 55.6157 439.9311 53.5626 434.7669 52.166 429.6027 50.7691 424.0151 50.0706 418.0045 50.0706 414.3643 50.0706 410.7237 50.3036 407.0835 50.7691 403.4432 51.2348 399.9297 51.8907 396.5434 52.7372 393.1571 53.5839 389.9823 54.5576 387.0193 55.658 384.0562 56.7587 381.0087 58.2826 377.8761 60.2297ZM519.3411 51.5945 498.388 128.8032V51.5945H476.7999V157.8835H510.7059L531.913 76.1034 553.3739 157.8835H587.0256V51.5945H565.4378V128.6765L544.6117 51.5945ZM634.2656 96.2943H660.1711L647.2182 132.486ZM698.9026 51.5945H676.1718L667.4097 75.8492H627.0273L618.3921 51.5945H595.6611L635.0275 157.8835H659.5362ZM730.3955 137.5656V111.4061H744.999C748.3008 111.4061 751.2639 111.5963 753.8885 111.9773 756.5128 112.3586 758.6717 113.0567 760.3648 114.0727 762.0579 115.0886 763.3704 116.4433 764.3015 118.1364 765.2327 119.8295 765.6982 122.0306 765.6982 124.7397 765.6982 129.3114 764.0685 132.592 760.8093 134.5813 757.55 136.5707 752.2798 137.5656 744.999 137.5656ZM746.0152 92.2306H730.3955V51.5945H708.8074V157.8835H749.0628C755.9203 157.8835 761.8252 156.9736 766.7779 155.1535 771.7303 153.3331 775.815 150.8783 779.0321 147.7882 782.2491 144.6982 784.5985 141.1846 786.0798 137.2482 787.5615 133.3114 788.3025 129.2689 788.3025 125.1207 788.3025 121.9884 787.9003 118.9196 787.0961 115.914 786.2916 112.9085 785.0217 110.0514 783.2863 107.3424 781.5506 104.6333 779.2651 102.1992 776.4287 100.0403 773.5927 97.8817 770.8626 96.3788 768.238 95.5324L795.5405 51.5945H771.1588ZM829.7005 137.5656H795.4138V157.8835H885.7023V137.5656H851.4153V51.5945H829.7005Z" fill="#b92025" fill-rule="evenodd"/>
<path transform="matrix(1,0,0,-1,1,1202.9533)" d="M157.2551 9.6948 153.9961 18.3742 150.8301 9.6948ZM193.3288 .3932V23.8436H200.4415L204.6447 7.8497 208.7989 23.8436H215.9277V.3932H211.5391L211.5227 18.8544 206.8991 .3932H202.3359L197.7341 18.8544 197.7177 .3932ZM245.6096 .3932V23.8436H262.9681V19.8805H250.3585V14.673H262.0837V10.7101H250.3585V4.3563H263.4265V.3932ZM297.1369 13.9198H300.6414C302.9122 13.9198 304.3261 14.0179 304.8936 14.2089 305.456 14.4 305.9036 14.7331 306.2203 15.2025 306.5423 15.6719 306.7004 16.2615 306.7004 16.9656 306.7004 17.7574 306.4876 18.3903 306.0675 18.8816 305.6471 19.3674 305.0521 19.6733 304.2879 19.7989 303.9004 19.8533 302.7484 19.8805 300.8324 19.8805H297.1369ZM292.388 .3932V23.8436H302.3609C304.8664 23.8436 306.6897 23.6307 307.8249 23.2104 308.9659 22.79 309.8721 22.0422 310.5544 20.967 311.2367 19.8862 311.5806 18.6579 311.5806 17.2715 311.5806 15.5083 311.0675 14.0562 310.0357 12.9098 309.0042 11.7635 307.4647 11.0429 305.4124 10.7427 306.4331 10.1477 307.2736 9.4927 307.9344 8.7778 308.6002 8.0626 309.4954 6.7907 310.6199 4.9674L313.4803 .3932H307.8196L304.4242 5.5134C303.207 7.3312 302.3719 8.4776 301.9187 8.9524 301.4711 9.4218 300.9963 9.7492 300.494 9.9241 299.9863 10.0987 299.1895 10.186 298.0976 10.186H297.1369V.3932ZM340.8094 .3932V23.8436H345.5583V.3932ZM390.0059 9.0397 394.5912 7.6314C393.8871 5.0494 392.7132 3.1334 391.0757 1.878 389.4381 .6279 387.3637 0 384.8474 0 381.7304 0 379.1704 1.0647 377.1615 3.1935 375.1583 5.3223 374.1537 8.2318 374.1537 11.9273 374.1537 15.8304 375.1637 18.8654 377.178 21.0268 379.1923 23.1885 381.8452 24.2694 385.1311 24.2694 388.0023 24.2694 390.3333 23.4179 392.1239 21.7202 393.1937 20.7159 393.9905 19.2747 394.5257 17.3914L389.842 16.278C389.5637 17.4898 388.9851 18.4504 388.1061 19.1546 387.222 19.8587 386.1519 20.2082 384.8964 20.2082 383.1551 20.2082 381.7414 19.586 380.6606 18.3359 379.5744 17.0912 379.0338 15.0715 379.0338 12.2766 379.0338 9.318 379.5687 7.2057 380.6334 5.9502 381.7032 4.6891 383.0896 4.0615 384.7983 4.0615 386.0592 4.0615 387.1454 4.4597 388.0517 5.2622 388.9576 6.0647 389.6127 7.3202 390.0059 9.0397ZM436.0365 9.6948 432.7775 18.3742 429.6115 9.6948ZM444.7157 .3932H439.6008L437.5757 5.7317H428.1704L426.2216 .3932H421.1997L430.3049 23.8436H435.3214ZM472.176 .3932V23.8436H476.7721L486.4229 8.1281V23.8436H490.8118V.3932H486.0683L476.5646 15.8085V.3932ZM552.9492 9.6948 549.6902 18.3742 546.5242 9.6948ZM561.6283 .3932H556.5135L554.4884 5.7317H545.0831L543.1343 .3932H538.1124L547.2176 23.8436H552.234ZM604.0891 9.0397 608.6744 7.6314C607.9703 5.0494 606.7964 3.1334 605.1589 1.878 603.5213 .6279 601.4469 0 598.9306 0 595.8136 0 593.2536 1.0647 591.2447 3.1935 589.2415 5.3223 588.2369 8.2318 588.2369 11.9273 588.2369 15.8304 589.2469 18.8654 591.2612 21.0268 593.2755 23.1885 595.9284 24.2694 599.2143 24.2694 602.0855 24.2694 604.4165 23.4179 606.2071 21.7202 607.2769 20.7159 608.0737 19.2747 608.6089 17.3914L603.9252 16.278C603.6469 17.4898 603.0683 18.4504 602.1893 19.1546 601.3052 19.8587 600.2351 20.2082 598.9796 20.2082 597.2383 20.2082 595.8247 19.586 594.7438 18.3359 593.6576 17.0912 593.117 15.0715 593.117 12.2766 593.117 9.318 593.6519 7.2057 594.7166 5.9502 595.7864 4.6891 597.1728 4.0615 598.8815 4.0615 600.1424 4.0615 601.2286 4.4597 602.1349 5.2622 603.0408 6.0647 603.6959 7.3202 604.0891 9.0397ZM650.1197 9.6948 646.8608 18.3742 643.6947 9.6948ZM658.7989 .3932H653.684L651.659 5.7317H642.2536L640.3048 .3932H635.2829L644.3881 23.8436H649.4046ZM691.0081 19.8805V4.3563H694.529C695.8446 4.3563 696.7945 4.4325 697.3784 4.5799 698.148 4.771 698.7813 5.0987 699.2836 5.557 699.7912 6.0157 700.2006 6.7689 700.5172 7.8171 700.8392 8.8651 700.9974 10.3005 700.9974 12.113 700.9974 13.9252 700.8392 15.3116 700.5172 16.2833 700.2006 17.2551 699.753 18.0082 699.1798 18.5542 698.6066 19.0945 697.8807 19.4658 696.9963 19.6569 696.3412 19.8043 695.0475 19.8805 693.1261 19.8805ZM686.2592 23.8436H694.8947C696.8435 23.8436 698.3283 23.6962 699.349 23.396 700.719 22.9921 701.8982 22.2715 702.8753 21.2343 703.8578 20.2028 704.6002 18.9363 705.1133 17.4351 705.621 15.9395 705.8775 14.089 705.8775 11.8945 705.8775 9.9624 705.6374 8.3027 705.1569 6.9055 704.573 5.1968 703.7376 3.8157 702.6514 2.7624 701.8328 1.9599 700.7247 1.3374 699.3326 .8898 698.29 .557 696.8979 .3932 695.1512 .3932H686.2592ZM734.8445 .3932V23.8436H752.203V19.8805H739.5934V14.673H751.3186V10.7101H739.5934V4.3563H752.6614V.3932ZM781.5572 .3932V23.8436H788.6699L792.8731 7.8497 797.0272 23.8436H804.1561V.3932H799.7675L799.7511 18.8544 795.1275 .3932H790.5643L785.9625 18.8544 785.946 .3932ZM839.9951 .3932V10.2626L831.3979 23.8436H836.9493L842.4952 14.5585 847.8938 23.8436H853.3417L844.7443 10.2297V.3932ZM165.9342 .3932H160.8194L158.7943 5.7317H149.3889L147.4401 .3932H142.4183L151.5234 23.8436H156.5399Z" fill="#3c00bd" fill-rule="evenodd"/>
</g>
</svg>
